<?xml version="1.0" standalone="no"?>
<!DOCTYPE svg PUBLIC "-//W3C//DTD SVG 20010904//EN"
 "http://www.w3.org/TR/2001/REC-SVG-20010904/DTD/svg10.dtd">
<svg version="1.0" xmlns="http://www.w3.org/2000/svg"
 width="512.000000pt" height="512.000000pt" viewBox="0 0 512 512"
 preserveAspectRatio="xMidYMid meet">

<g transform="translate(0.000000,512.000000) scale(0.100000,-0.100000)"
fill="#000000" stroke="none">
<path d="M2522 5098 c-22 -13 -178 -148 -346 -301 -318 -291 -336 -312 -336
-390 1 -46 16 -77 233 -449 109 -185 197 -340 197 -344 0 -4 -38 -73 -84 -153
-45 -80 -88 -156 -95 -168 -10 -20 -7 -25 42 -57 94 -63 176 -160 237 -281 15
-29 21 -31 260 -87 135 -31 254 -57 266 -57 16 -1 42 38 128 189 60 105 112
190 117 190 5 0 112 -54 238 -120 126 -67 242 -125 259 -129 38 -11 723 7 777
21 24 6 56 26 81 52 69 69 70 164 2 241 -49 56 -64 58 -439 50 l-338 -7 -619
341 -619 342 -117 196 -117 197 23 21 c13 12 123 113 246 224 122 112 230 215
240 229 12 18 17 47 17 92 0 58 -4 71 -29 104 -55 72 -149 95 -224 54z"/>
<path d="M3092 4559 c-241 -41 -378 -305 -273 -525 63 -131 193 -214 336 -214
291 0 471 327 314 572 -67 104 -153 154 -299 173 -14 1 -49 -1 -78 -6z"/>
<path d="M1660 3104 c-30 -8 -74 -26 -98 -40 -46 -27 -123 -97 -139 -127 -9
-17 -32 -13 -363 63 -317 73 -358 81 -392 71 -69 -21 -112 -105 -88 -175 22
-67 48 -78 385 -156 171 -39 326 -76 347 -81 33 -9 37 -13 48 -62 7 -28 25
-75 41 -104 l29 -52 -43 -11 c-278 -70 -473 -241 -558 -488 -23 -67 -219 -911
-219 -943 0 -35 39 -107 70 -129 24 -17 169 -62 178 -55 1 1 24 96 51 211 27
115 56 228 65 251 42 117 123 204 243 261 66 31 89 37 163 40 229 11 419 -128
480 -351 20 -75 7 -199 -44 -416 -25 -106 -46 -197 -46 -201 0 -15 142 -41
183 -34 45 7 109 59 125 102 6 15 55 214 109 442 l97 415 0 160 c0 153 -1 163
-30 242 -46 122 -89 188 -191 290 l-92 92 34 21 c19 11 56 45 83 75 l50 55
345 -80 c190 -44 353 -80 362 -80 32 0 87 33 106 64 29 47 25 117 -7 155 -14
18 -34 36 -43 41 -10 5 -157 41 -327 80 -424 98 -380 83 -387 129 -13 101
-107 231 -205 284 -100 55 -216 69 -322 41z m193 -227 c45 -19 105 -89 113
-132 18 -97 -23 -187 -103 -226 -116 -56 -246 2 -283 128 -24 80 21 182 98
223 44 23 128 26 175 7z"/>
<path d="M2400 2167 c0 -7 6 -21 13 -32 8 -11 22 -41 32 -68 16 -43 27 -53
121 -114 57 -36 104 -69 104 -72 0 -3 -33 -30 -74 -58 l-73 -53 -5 -117 c-4
-89 -16 -162 -47 -297 -23 -98 -41 -180 -39 -181 7 -7 765 547 795 580 67 77
65 199 -4 276 -31 34 -152 119 -169 119 -4 0 -32 -12 -63 -27 -91 -45 -171
-44 -388 6 -98 23 -184 44 -190 46 -7 2 -13 -1 -13 -8z"/>
<path d="M1350 1351 c-85 -26 -149 -92 -173 -179 -49 -173 -207 -891 -207
-936 0 -142 131 -253 272 -232 64 10 137 60 167 115 16 29 58 189 127 487 56
244 106 463 109 488 23 154 -147 302 -295 257z"/>
</g>
</svg>
